<svg id="visual" viewBox="0 0 1280 600" width="1280" height="600" xmlns="http://www.w3.org/2000/svg" xmlns:xlink="http://www.w3.org/1999/xlink" version="1.1"><rect x="0" y="0" width="1280" height="600" fill="#002233"></rect><path d="M0 456L30.5 455.5C61 455 122 454 183 461.8C244 469.7 305 486.3 366 480.7C427 475 488 447 548.8 438.7C609.7 430.3 670.3 441.7 731.2 443C792 444.3 853 435.7 914 444.7C975 453.7 1036 480.3 1097 490.3C1158 500.3 1219 493.7 1249.5 490.3L1280 487L1280 601L1249.5 601C1219 601 1158 601 1097 601C1036 601 975 601 914 601C853 601 792 601 731.2 601C670.3 601 609.7 601 548.8 601C488 601 427 601 366 601C305 601 244 601 183 601C122 601 61 601 30.5 601L0 601Z" fill="#0066FF" stroke-linecap="round" stroke-linejoin="miter"></path></svg>